<?xml version="1.0" encoding="utf-8"?>
<!-- Generator: Adobe Illustrator 16.0.0, SVG Export Plug-In . SVG Version: 6.00 Build 0)  -->
<!DOCTYPE svg PUBLIC "-//W3C//DTD SVG 1.1//EN" "http://www.w3.org/Graphics/SVG/1.1/DTD/svg11.dtd">
<svg version="1.1" id="Layer_1" xmlns="http://www.w3.org/2000/svg" xmlns:xlink="http://www.w3.org/1999/xlink" x="0px" y="0px"
	 width="800px" height="800px" viewBox="0 0 800 800" enable-background="new 0 0 800 800" xml:space="preserve">
<g>
	<g>
		<linearGradient id="SVGID_1_" gradientUnits="userSpaceOnUse" x1="446.3018" y1="479.4971" x2="446.3017" y2="86.1602">
			<stop  offset="0" style="stop-color:#264872"/>
			<stop  offset="1" style="stop-color:#34B5C0"/>
		</linearGradient>
		<path fill="url(#SVGID_1_)" d="M621.243,406.044c0,20.937-16.973,37.909-37.91,37.909c-20.936,0-37.908-16.973-37.908-37.909
			s16.973-37.909,37.908-37.909C604.271,368.135,621.243,385.107,621.243,406.044z M272.439,137.23
			c-8.375,0-15.163,6.789-15.163,15.164s6.788,15.164,15.163,15.164c8.374,0,15.163-6.789,15.163-15.164
			S280.813,137.23,272.439,137.23z M353.061,128.424c10.469,0,18.954-8.486,18.954-18.955s-8.485-18.955-18.954-18.955
			c-10.468,0-18.954,8.486-18.954,18.955S342.593,128.424,353.061,128.424z M443.142,131.65c12.563,0,22.746-10.184,22.746-22.746
			S455.704,86.16,443.142,86.16c-12.562,0-22.745,10.183-22.745,22.745S430.58,131.65,443.142,131.65z M524.519,176.587
			c14.656,0,26.536-11.881,26.536-26.537s-11.88-26.536-26.536-26.536c-14.655,0-26.536,11.88-26.536,26.536
			S509.863,176.587,524.519,176.587z M581.007,255.414c16.75,0,30.327-13.578,30.327-30.327s-13.577-30.327-30.327-30.327
			c-16.749,0-30.327,13.578-30.327,30.327S564.258,255.414,581.007,255.414z M601.21,284.929c-18.843,0-34.117,15.275-34.117,34.118
			c0,18.843,15.274,34.118,34.117,34.118s34.118-15.275,34.118-34.118C635.328,300.205,620.053,284.929,601.21,284.929z
			 M429.024,434.196c-10.362,10.363-10.362,27.165,0.001,37.528c10.362,10.363,27.165,10.363,37.528,0
			c10.362-10.362,10.362-27.165-0.001-37.527C456.19,423.834,439.388,423.834,429.024,434.196z M426.961,166.02
			c-4.146-4.146-10.866-4.146-15.012,0c-4.146,4.145-4.146,10.866,0,15.011c4.146,4.145,10.866,4.145,15.011,0
			C431.105,176.886,431.105,170.165,426.961,166.02z M489.988,201.566c5.182-5.182,5.182-13.583,0-18.764
			c-5.181-5.182-13.582-5.182-18.764,0s-5.182,13.583,0,18.764C476.406,206.748,484.808,206.748,489.988,201.566z M536.732,225.234
			c-6.218-6.218-16.299-6.218-22.517,0s-6.218,16.299,0,22.517s16.299,6.218,22.517,0
			C542.95,241.534,542.95,231.453,536.732,225.234z M558.522,310.273c7.254-7.254,7.254-19.016,0-26.27
			c-7.254-7.254-19.016-7.254-26.27,0c-7.254,7.254-7.254,19.016,0,26.27C539.507,317.527,551.269,317.527,558.522,310.273z
			 M551.218,347.229c-8.29-8.291-21.731-8.291-30.021,0c-8.291,8.291-8.291,21.732-0.001,30.022c8.291,8.29,21.732,8.29,30.022,0
			C559.509,368.961,559.509,355.52,551.218,347.229z M482.812,401.86c-9.327,9.327-9.327,24.448,0,33.775
			c9.326,9.327,24.448,9.327,33.774,0c9.327-9.327,9.327-24.448,0-33.775C507.26,392.534,492.138,392.534,482.812,401.86z
			 M357.211,390.007c-10.259,0-18.575,8.316-18.575,18.575c0,10.26,8.316,18.576,18.575,18.576s18.575-8.316,18.575-18.576
			C375.786,398.323,367.47,390.007,357.211,390.007z M488.931,256.244c0-4.104-3.327-7.43-7.431-7.43s-7.431,3.327-7.431,7.43
			s3.327,7.43,7.431,7.43S488.931,260.348,488.931,256.244z M502.532,305.037c5.13,0,9.288-4.158,9.288-9.288
			c0-5.13-4.158-9.288-9.288-9.288c-5.129,0-9.287,4.158-9.287,9.288C493.245,300.878,497.403,305.037,502.532,305.037z
			 M513.954,339.889c0-6.155-4.989-11.146-11.145-11.146s-11.146,4.99-11.146,11.146s4.99,11.146,11.146,11.146
			S513.954,346.044,513.954,339.889z M469.646,379.763c0,7.181,5.821,13.003,13.003,13.003c7.181,0,13.003-5.822,13.003-13.003
			s-5.822-13.003-13.003-13.003C475.467,366.76,469.646,372.582,469.646,379.763z M445.88,392.582c-8.207,0-14.86,6.653-14.86,14.86
			s6.653,14.86,14.86,14.86s14.861-6.653,14.861-14.86S454.087,392.582,445.88,392.582z M399.839,400.624
			c-9.232,0-16.718,7.485-16.718,16.718c0,9.233,7.485,16.718,16.718,16.718c9.233,0,16.719-7.484,16.719-16.718
			C416.558,408.109,409.072,400.624,399.839,400.624z"/>
		<linearGradient id="SVGID_2_" gradientUnits="userSpaceOnUse" x1="354.7217" y1="157.4678" x2="354.7216" y2="552.3589">
			<stop  offset="0" style="stop-color:#23B8E2"/>
			<stop  offset="1" style="stop-color:#A5D4D7"/>
		</linearGradient>
		<path fill="url(#SVGID_2_)" d="M179.525,228.569c0-20.937,16.973-37.909,37.909-37.909s37.909,16.973,37.909,37.909
			s-16.973,37.909-37.909,37.909S179.525,249.505,179.525,228.569z M268.223,330.265c-7.254-7.254-19.016-7.254-26.27,0
			c-7.254,7.254-7.254,19.016,0,26.27c7.255,7.254,19.016,7.254,26.27,0C275.478,349.28,275.478,337.519,268.223,330.265z
			 M232.908,322.721c0-18.843-15.274-34.118-34.118-34.118c-18.843,0-34.118,15.275-34.118,34.118
			c0,18.843,15.275,34.118,34.118,34.118C217.634,356.839,232.908,341.563,232.908,322.721z M220.292,385.884
			c-16.749,0-30.326,13.578-30.326,30.328c0,16.749,13.577,30.327,30.326,30.327c16.75,0,30.327-13.578,30.327-30.327
			C250.619,399.462,237.042,385.884,220.292,385.884z M319.46,374.828c-4.104,0-7.43,3.327-7.43,7.43s3.326,7.43,7.43,7.43
			s7.431-3.327,7.431-7.43S323.563,374.828,319.46,374.828z M287.288,414.787c6.219-6.218,6.219-16.299,0-22.517
			c-6.218-6.218-16.299-6.218-22.517,0s-6.218,16.299,0,22.517S281.07,421.005,287.288,414.787z M278.003,463.492
			c-14.656,0-26.537,11.881-26.537,26.536s11.881,26.536,26.537,26.536c14.655,0,26.536-11.881,26.536-26.536
			S292.658,463.492,278.003,463.492z M316.06,245.968c-7.182,0-13.004,5.821-13.004,13.002c0,7.182,5.822,13.003,13.004,13.003
			c7.181,0,13.002-5.821,13.002-13.003C329.062,251.789,323.24,245.968,316.06,245.968z M315.58,238.266
			c9.327-9.327,9.327-24.449,0.001-33.775c-9.327-9.327-24.449-9.327-33.775,0c-9.327,9.327-9.327,24.448,0,33.775
			C291.132,247.593,306.253,247.593,315.58,238.266z M248.049,293.309c8.29,8.29,21.732,8.29,30.022,0
			c8.291-8.291,8.291-21.732,0-30.022c-8.29-8.291-21.732-8.291-30.022,0S239.759,285.018,248.049,293.309z M337.368,230.692
			c0,8.207,6.653,14.86,14.861,14.86c8.207,0,14.859-6.653,14.859-14.86s-6.652-14.86-14.859-14.86
			C344.021,215.832,337.368,222.485,337.368,230.692z M375.558,456.997c-4.146,4.146-4.146,10.866,0,15.012
			c4.145,4.145,10.865,4.145,15.011-0.001c4.146-4.145,4.146-10.865,0-15.011S379.702,452.852,375.558,456.997z M444.174,247.868
			c10.259,0,18.576-8.317,18.576-18.576s-8.317-18.576-18.576-18.576s-18.575,8.317-18.575,18.576S433.915,247.868,444.174,247.868z
			 M398.04,203.438c-9.233,0-16.718,7.485-16.718,16.718s7.484,16.718,16.718,16.718c9.232,0,16.718-7.485,16.718-16.718
			S407.272,203.438,398.04,203.438z M449.799,508.426c-10.469,0-18.954,8.486-18.954,18.955c0,10.468,8.485,18.954,18.954,18.954
			c10.468,0,18.954-8.486,18.954-18.954C468.753,516.912,460.267,508.426,449.799,508.426z M529.609,467.923
			c-8.375,0-15.163,6.789-15.163,15.164c0,8.374,6.788,15.163,15.163,15.163s15.163-6.789,15.163-15.163
			C544.772,474.712,537.984,467.923,529.609,467.923z M359.896,506.867c-12.563,0-22.746,10.184-22.746,22.746
			c0,12.562,10.184,22.745,22.746,22.745c12.562,0,22.745-10.184,22.745-22.745C382.642,517.051,372.458,506.867,359.896,506.867z
			 M312.252,437.541c-5.182,5.182-5.182,13.582,0,18.764s13.583,5.182,18.765,0s5.182-13.582,0-18.764
			S317.434,432.359,312.252,437.541z M297.757,333.863c-5.13,0-9.288,4.158-9.288,9.288s4.158,9.288,9.288,9.288
			c5.129,0,9.287-4.158,9.287-9.288S302.886,333.863,297.757,333.863z M296.662,287.953c-6.155,0-11.146,4.99-11.146,11.145
			s4.99,11.146,11.146,11.146s11.146-4.99,11.146-11.146S302.817,287.953,296.662,287.953z M373.288,202.768
			c10.363-10.363,10.363-27.165,0-37.528c-10.363-10.363-27.165-10.363-37.528,0c-10.362,10.363-10.362,27.165,0,37.528
			C346.123,213.131,362.925,213.131,373.288,202.768z"/>
	</g>
	<g>
		<linearGradient id="SVGID_3_" gradientUnits="userSpaceOnUse" x1="712.6494" y1="667.7803" x2="299.3174" y2="667.7803">
			<stop  offset="0" style="stop-color:#23B8E2"/>
			<stop  offset="1" style="stop-color:#A5D4D7"/>
		</linearGradient>
		<path fill="url(#SVGID_3_)" d="M459.286,687.714h-36.781l-10.396,24.445H401.6l39.753-90.242l38.725,90.242h-10.624
			L459.286,687.714z M455.518,678.804l-14.393-34.498l-14.736,34.498H455.518z M563.58,637.909l-7.654,4.911
			c-3.58-6.243-8.53-9.367-14.85-9.367c-3.885,0-7.236,1.258-10.052,3.771c-2.819,2.513-4.228,5.711-4.228,9.595
			c0,1.753,0.381,3.353,1.142,4.798c0.762,1.448,1.942,2.724,3.542,3.827c1.6,1.104,2.95,1.961,4.055,2.569
			c1.103,0.611,2.685,1.371,4.741,2.285l5.711,2.513c3.274,1.448,5.978,2.8,8.111,4.057c2.131,1.256,4.244,2.817,6.34,4.684
			c2.094,1.865,3.654,4.093,4.684,6.682c1.027,2.59,1.541,5.522,1.541,8.796c0,7.464-2.627,13.766-7.881,18.905
			c-5.255,5.141-11.652,7.711-19.191,7.711c-6.854,0-12.699-2.037-17.534-6.112c-4.838-4.072-7.939-9.461-9.311-16.163l9.367-2.628
			c0.608,4.495,2.513,8.282,5.711,11.367c3.2,3.084,7.043,4.626,11.538,4.626c4.721,0,8.853-1.617,12.395-4.855
			c3.541-3.234,5.311-7.214,5.311-11.938c0-1.901-0.324-3.672-0.971-5.311c-0.646-1.638-1.371-2.95-2.17-3.941
			c-0.799-0.989-2.075-2.057-3.826-3.199c-1.754-1.142-3.124-1.959-4.113-2.456c-0.99-0.493-2.59-1.237-4.798-2.227l-5.255-2.284
			c-6.093-2.742-10.737-5.713-13.936-8.911s-4.799-7.576-4.799-13.136c0-6.473,2.36-11.746,7.084-15.821
			c4.721-4.073,10.395-6.111,17.02-6.111c4.798,0,9.139,1.161,13.023,3.483C558.211,630.352,561.295,633.645,563.58,637.909z
			 M617.952,626.029v86.13h-9.595v-86.13H617.952z M709.565,637.909l-7.654,4.911c-3.58-6.243-8.529-9.367-14.849-9.367
			c-3.885,0-7.236,1.258-10.053,3.771c-2.819,2.513-4.228,5.711-4.228,9.595c0,1.753,0.381,3.353,1.143,4.798
			c0.761,1.448,1.941,2.724,3.541,3.827c1.601,1.104,2.95,1.961,4.055,2.569c1.104,0.611,2.686,1.371,4.742,2.285l5.711,2.513
			c3.273,1.448,5.977,2.8,8.11,4.057c2.131,1.256,4.245,2.817,6.34,4.684c2.094,1.865,3.655,4.093,4.684,6.682
			c1.027,2.59,1.542,5.522,1.542,8.796c0,7.464-2.627,13.766-7.882,18.905c-5.255,5.141-11.652,7.711-19.19,7.711
			c-6.854,0-12.699-2.037-17.534-6.112c-4.839-4.072-7.94-9.461-9.312-16.163l9.367-2.628c0.609,4.495,2.514,8.282,5.712,11.367
			c3.199,3.084,7.043,4.626,11.538,4.626c4.721,0,8.852-1.617,12.394-4.855c3.542-3.234,5.312-7.214,5.312-11.938
			c0-1.901-0.324-3.672-0.971-5.311c-0.647-1.638-1.371-2.95-2.17-3.941c-0.8-0.989-2.076-2.057-3.827-3.199
			c-1.753-1.142-3.124-1.959-4.112-2.456c-0.99-0.493-2.59-1.237-4.798-2.227l-5.255-2.284c-6.093-2.742-10.738-5.713-13.937-8.911
			s-4.798-7.576-4.798-13.136c0-6.473,2.359-11.746,7.083-15.821c4.722-4.073,10.396-6.111,17.021-6.111
			c4.798,0,9.138,1.161,13.023,3.483C704.196,630.352,707.28,633.645,709.565,637.909z M299.317,638.063
			c2.46-2.368,5.193-4.449,8.232-6.207c6.711-3.885,13.973-5.826,21.783-5.826c12.662,0,23.261,4.225,31.79,12.675
			c8.53,8.449,12.798,18.851,12.798,31.202c0,11.309-3.642,21.028-10.91,29.166l-0.422-5.883l-5.192-0.372
			c1.193-1.473,2.285-3.042,3.245-4.737c3.094-5.46,4.641-11.528,4.641-18.202c0-6.635-1.547-12.637-4.641-18.002
			c-3.094-5.367-7.448-9.661-13.064-12.884c-5.617-3.224-11.575-4.835-17.875-4.835c-6.186,0-12.05,1.611-17.59,4.835
			c-2.681,1.559-5.069,3.386-7.182,5.468l-5.181-0.372L299.317,638.063z"/>
		<linearGradient id="SVGID_4_" gradientUnits="userSpaceOnUse" x1="87.3506" y1="669.1924" x2="360.4248" y2="669.1924">
			<stop  offset="0" style="stop-color:#536994"/>
			<stop  offset="1" style="stop-color:#34B5C0"/>
		</linearGradient>
		<path fill="url(#SVGID_4_)" d="M136.583,668.865h35.869c0.151,6.551-0.381,12.187-1.599,16.907
			c-1.22,4.722-3.656,9.215-7.311,13.478c-3.884,4.571-8.664,8.111-14.336,10.624c-5.674,2.515-11.521,3.771-17.535,3.771
			c-12.108,0-22.523-4.359-31.243-13.08c-8.72-8.719-13.078-19.134-13.078-31.242c0-12.337,4.378-22.883,13.137-31.642
			c8.756-8.757,19.342-13.137,31.756-13.137c14.773,0,26.92,6.208,36.439,18.62l-6.967,6.511
			c-7.693-10.813-17.556-16.222-29.587-16.222c-9.749,0-18.049,3.542-24.901,10.623c-6.854,7.084-10.282,15.536-10.282,25.36
			c0,9.367,3.351,17.478,10.053,24.332c3.272,3.275,7.082,5.922,11.424,7.938c4.34,2.019,8.681,3.027,13.021,3.027
			c7.843,0,14.925-2.569,21.247-7.711c6.32-5.141,9.481-11.555,9.481-19.247h-25.589V668.865z M223.057,626.029v77.22h23.76v8.91
			h-33.355v-86.13H223.057z M359.996,695.782l-4.931-0.354c-2.147,2.142-4.596,3.997-7.346,5.563
			c-5.522,3.147-11.528,4.722-18.018,4.722c-9.716,0-18.018-3.422-24.906-10.267c-6.888-6.845-10.332-15.235-10.332-25.171
			c0-6.712,1.557-12.797,4.668-18.259c1.01-1.771,2.161-3.412,3.427-4.949l-5.401-0.387l-0.425-5.921
			c-1.897,2.188-3.593,4.587-5.077,7.208c-3.887,6.858-5.83,14.304-5.83,22.337c0,12.049,4.266,22.317,12.796,30.805
			c8.531,8.487,18.996,12.731,31.394,12.731c11.903,0,22.035-4.039,30.41-12.093L359.996,695.782z"/>
	</g>
</g>
</svg>
